<svg xmlns="http://www.w3.org/2000/svg" viewBox="0 0 240 56" fill="none" role="img" aria-label="Neuroloom">
  <defs>
    <linearGradient id="nl-bg" x1="4" y1="4" x2="52" y2="52" gradientUnits="userSpaceOnUse">
      <stop stop-color="#ff6b6b"/>
      <stop offset="0.55" stop-color="#ff8e8e"/>
      <stop offset="1" stop-color="#4ecdc4"/>
    </linearGradient>
    <linearGradient id="nl-word" x1="64" y1="0" x2="240" y2="0" gradientUnits="userSpaceOnUse">
      <stop stop-color="#ffffff"/>
      <stop offset="1" stop-color="#d4d4d8"/>
    </linearGradient>
    <linearGradient id="nl-underline" x1="64" y1="0" x2="200" y2="0" gradientUnits="userSpaceOnUse">
      <stop stop-color="#4ecdc4"/>
      <stop offset="1" stop-color="#ff6b6b"/>
    </linearGradient>
  </defs>
  <!-- Icon mark -->
  <rect x="4" y="4" width="48" height="48" rx="14" fill="url(#nl-bg)"/>
  <path d="M18 14 C18 20, 38 20, 38 26 C38 32, 18 32, 18 38" stroke="#fff" stroke-width="2.6" stroke-linecap="round" fill="none" opacity="0.95"/>
  <path d="M38 14 C38 20, 18 20, 18 26 C18 32, 38 32, 38 38" stroke="#fff" stroke-width="2.6" stroke-linecap="round" fill="none" opacity="0.5"/>
  <line x1="20" y1="19" x2="36" y2="19" stroke="#fff" stroke-opacity="0.4" stroke-width="1.2" stroke-linecap="round"/>
  <line x1="20" y1="26" x2="36" y2="26" stroke="#fff" stroke-opacity="0.55" stroke-width="1.2" stroke-linecap="round"/>
  <line x1="20" y1="33" x2="36" y2="33" stroke="#fff" stroke-opacity="0.4" stroke-width="1.2" stroke-linecap="round"/>
  <circle cx="28" cy="26" r="3.5" fill="#fff"/>
  <circle cx="28" cy="26" r="1.5" fill="#4ecdc4"/>
  <!-- Wordmark -->
  <text x="64" y="36" font-family="system-ui,Segoe UI,sans-serif" font-size="26" font-weight="700" fill="url(#nl-word)" letter-spacing="-0.8">Neuroloom</text>
  <path d="M64 44 H210" stroke="url(#nl-underline)" stroke-width="2.5" stroke-linecap="round" opacity="0.65"/>
  <text x="64" y="52" font-family="system-ui,Segoe UI,sans-serif" font-size="9" font-weight="500" fill="#71717a" letter-spacing="0.12em">FAMILY CARE COMMAND CENTER</text>
</svg>
